<svg xmlns="http://www.w3.org/2000/svg" width="32" height="32" viewBox="0 0 32 32">
  <path id="arrow-circle-right" d="M8,24A16,16,0,1,0,24,8,16,16,0,0,0,8,24ZM24,10.065A13.935,13.935,0,1,1,10.065,24,13.935,13.935,0,0,1,24,10.065Zm.806,5.968,7.426,7.419a.775.775,0,0,1,0,1.1l-7.426,7.419a.775.775,0,0,1-1.1,0l-.445-.445a.771.771,0,0,1,.013-1.1L28.8,25.1H16.516a.776.776,0,0,1-.774-.774v-.645a.776.776,0,0,1,.774-.774H28.794l-5.523-5.323a.777.777,0,0,1-.013-1.1l.445-.445A.783.783,0,0,1,24.806,16.032Z" transform="translate(-8 -8)"/>
</svg>
