<svg xmlns="http://www.w3.org/2000/svg" width="200" height="177.778" viewBox="0 0 200 177.778">
  <path id="router" d="M60.392,33.615a2.819,2.819,0,0,0,3.9.024,85.744,85.744,0,0,1,115.858,0,2.819,2.819,0,0,0,3.9-.024l4-3.937a2.778,2.778,0,0,0-.038-4.014,97.165,97.165,0,0,0-131.583,0,2.778,2.778,0,0,0-.038,4.014Zm61.83,5.274a62.243,62.243,0,0,0-41.8,15.9,2.778,2.778,0,0,0-.052,4.042l4,3.924a2.851,2.851,0,0,0,3.9.049,51.448,51.448,0,0,1,67.931,0,2.851,2.851,0,0,0,3.9-.049l3.99-3.924a2.778,2.778,0,0,0-.052-4.042,62.243,62.243,0,0,0-41.812-15.9Zm61.111,72.222H127.778V80.556A2.778,2.778,0,0,0,125,77.778h-5.556a2.778,2.778,0,0,0-2.778,2.778v30.556h-100A16.667,16.667,0,0,0,0,127.778v33.333a16.667,16.667,0,0,0,16.667,16.667H183.333A16.667,16.667,0,0,0,200,161.111V127.778A16.667,16.667,0,0,0,183.333,111.111Zm5.556,50a5.556,5.556,0,0,1-5.556,5.556H16.667a5.556,5.556,0,0,1-5.556-5.556V127.778a5.556,5.556,0,0,1,5.556-5.556H183.333a5.556,5.556,0,0,1,5.556,5.556Zm-125-25a8.333,8.333,0,1,0,8.333,8.333A8.333,8.333,0,0,0,63.889,136.111Zm-27.778,0a8.333,8.333,0,1,0,8.333,8.333A8.333,8.333,0,0,0,36.111,136.111Z"/>
</svg>
