<svg xmlns="http://www.w3.org/2000/svg" width="631.979" height="100.029" viewBox="0 0 631.979 100.029">
  <g id="Layer_2" data-name="Layer 2" transform="translate(0 0.005)">
    <g id="Layer_1" data-name="Layer 1" transform="translate(0 -0.005)">
      <path id="Path_11" data-name="Path 11" d="M33.478,57.537,18.059,73.373V98.238H0V1H18.059V50.869L66.122,1H86.4L45.563,44.479,88.9,98.238H67.789Z" transform="translate(0 0.395)" fill="#231f20"/>
      <path id="Path_12" data-name="Path 12" d="M85.961,93.559a47.716,47.716,0,0,1-18.753-17.92A49.189,49.189,0,0,1,60.4,50.01a49.189,49.189,0,0,1,6.807-25.629A47.716,47.716,0,0,1,85.961,6.461,55.412,55.412,0,0,1,112.771,0a55.454,55.454,0,0,1,26.81,6.459,48.022,48.022,0,0,1,18.753,17.85,49.091,49.091,0,0,1,6.807,25.7,49.091,49.091,0,0,1-6.807,25.7,48.022,48.022,0,0,1-18.753,17.85,55.453,55.453,0,0,1-26.81,6.459,55.412,55.412,0,0,1-26.81-6.459Zm44.313-13.752A31.713,31.713,0,0,0,142.5,67.582a35.075,35.075,0,0,0,4.445-17.572A35.075,35.075,0,0,0,142.5,32.438a31.713,31.713,0,0,0-12.224-12.224,37.2,37.2,0,0,0-35.006,0A31.519,31.519,0,0,0,83.044,32.438,34.936,34.936,0,0,0,78.6,50.01a34.936,34.936,0,0,0,4.445,17.572A31.519,31.519,0,0,0,95.268,79.806a37.2,37.2,0,0,0,35.006,0Z" transform="translate(23.501 0.005)" fill="#231f20"/>
      <path id="Path_13" data-name="Path 13" d="M144.6,1h18.059V82.958H213.5v15.28H144.6Z" transform="translate(56.266 0.395)" fill="#231f20"/>
      <path id="Path_14" data-name="Path 14" d="M199.5,1h18.059V82.958H268.4v15.28H199.5Z" transform="translate(77.629 0.395)" fill="#231f20"/>
      <path id="Path_15" data-name="Path 15" d="M336.38,1V98.238H329.3V51.981H264.284V98.238H257.2V1h7.085V45.73H329.3V1Z" transform="translate(100.081 0.395)" fill="#231f20"/>
      <path id="Path_16" data-name="Path 16" d="M338.21,88.237Q328,77.554,328,56.981V1h7.085V56.7q0,17.92,8.2,26.81t23.754,8.89q15.419,0,23.615-8.89t8.2-26.81V1h7.085V56.981q0,20.573-10.279,31.255T366.9,98.933Q348.42,98.933,338.21,88.237Z" transform="translate(127.63 0.395)" fill="#231f20"/>
      <path id="Path_17" data-name="Path 17" d="M471.662,56.287q5.473,6.251,5.487,16.253,0,12.349-9.029,19.031T441.24,98.238H397.9V1h40.562Q454.3,1,463.119,7.459t8.821,18.406a22.337,22.337,0,0,1-4.376,14.03,24.2,24.2,0,0,1-11.877,8.2Q466.106,50.036,471.662,56.287ZM404.985,7.112V45.868h33.2q12.766,0,19.656-4.931t6.876-14.516q0-9.446-6.876-14.377T438.184,7.112ZM462.7,87.195Q470,82.263,470,71.984T462.7,56.842q-7.293-4.862-21.462-4.862H404.985V92.126H441.24q14.169,0,21.462-4.931Z" transform="translate(154.829 0.395)" fill="#231f20"/>
    </g>
  </g>
</svg>
