<svg xmlns="http://www.w3.org/2000/svg" width="665.249" height="100.029" viewBox="0 0 665.249 100.029">
  <g id="Layer_2" data-name="Layer 2" transform="translate(0 0.005)">
    <g id="Layer_1" data-name="Layer 1" transform="translate(0 -0.005)">
      <path id="Path_18" data-name="Path 18" d="M33.478,57.537,18.059,73.373V98.238H0V1H18.059V50.869L66.122,1H86.4L45.563,44.479,88.9,98.238H67.789Z" transform="translate(0 0.395)" fill="#231f20"/>
      <path id="Path_19" data-name="Path 19" d="M85.961,93.559a47.716,47.716,0,0,1-18.753-17.92A49.189,49.189,0,0,1,60.4,50.01a49.189,49.189,0,0,1,6.807-25.629A47.716,47.716,0,0,1,85.961,6.461,55.412,55.412,0,0,1,112.771,0a55.454,55.454,0,0,1,26.81,6.459,48.022,48.022,0,0,1,18.753,17.85,49.092,49.092,0,0,1,6.807,25.7,49.092,49.092,0,0,1-6.807,25.7,48.022,48.022,0,0,1-18.753,17.85,55.453,55.453,0,0,1-26.81,6.459,55.412,55.412,0,0,1-26.81-6.459Zm44.313-13.752A31.714,31.714,0,0,0,142.5,67.582a35.075,35.075,0,0,0,4.445-17.572A35.075,35.075,0,0,0,142.5,32.438a31.713,31.713,0,0,0-12.224-12.224,37.2,37.2,0,0,0-35.006,0A31.519,31.519,0,0,0,83.044,32.438,34.936,34.936,0,0,0,78.6,50.01a34.936,34.936,0,0,0,4.445,17.572A31.519,31.519,0,0,0,95.268,79.807a37.2,37.2,0,0,0,35.006,0Z" transform="translate(23.501 0.005)" fill="#231f20"/>
      <path id="Path_20" data-name="Path 20" d="M144.6,1h18.059V82.958H213.5v15.28H144.6Z" transform="translate(56.266 0.395)" fill="#231f20"/>
      <path id="Path_21" data-name="Path 21" d="M199.5,1h18.059V82.958H268.4v15.28H199.5Z" transform="translate(77.629 0.395)" fill="#231f20"/>
      <path id="Path_22" data-name="Path 22" d="M255.943,95.252A29.338,29.338,0,0,1,244.9,85.042l4.306-4.723a28.436,28.436,0,0,0,9.515,9.1,23.824,23.824,0,0,0,12.016,3.126q9.724,0,14.516-5.626t4.792-17.295V7.39H254.207V1h42.924V69.622q0,14.586-6.668,21.948t-19.726,7.362A30.811,30.811,0,0,1,255.943,95.252Z" transform="translate(95.295 0.395)" fill="#231f20"/>
      <path id="Path_23" data-name="Path 23" d="M314.327,92.668a47.452,47.452,0,0,1-18.059-17.711A48.716,48.716,0,0,1,289.6,49.814a48.716,48.716,0,0,1,6.6-25.143A47.452,47.452,0,0,1,314.258,6.96a55.162,55.162,0,0,1,51.675-.069,47.23,47.23,0,0,1,18.059,17.642,49.148,49.148,0,0,1,6.737,25.282,49.147,49.147,0,0,1-6.6,25.282,47.23,47.23,0,0,1-18.059,17.642,52.4,52.4,0,0,1-25.907,6.39,51.925,51.925,0,0,1-25.838-6.459Zm47.925-5.556a41.062,41.062,0,0,0,15.558-15.28,42.757,42.757,0,0,0,5.7-22.017,42.756,42.756,0,0,0-5.7-21.879,41.062,41.062,0,0,0-15.558-15.28,46.813,46.813,0,0,0-44.243,0,40.757,40.757,0,0,0-15.628,15.28,42.631,42.631,0,0,0-5.7,21.879,42.632,42.632,0,0,0,5.7,21.879,40.757,40.757,0,0,0,15.628,15.28,46.813,46.813,0,0,0,44.243,0Z" transform="translate(112.687 0.201)" fill="#231f20"/>
      <path id="Path_24" data-name="Path 24" d="M443.793,56.287q5.473,6.251,5.557,16.253,0,12.349-9.029,19.031T413.44,98.238H370.1V1h40.562Q426.5,1,435.319,7.459t8.821,18.406a22.337,22.337,0,0,1-4.376,14.03,24.2,24.2,0,0,1-11.877,8.2Q438.306,50.036,443.793,56.287ZM377.185,7.112V45.868h33.2q12.766,0,19.656-4.931t6.876-14.516q0-9.446-6.876-14.377T410.384,7.112ZM434.9,87.195q7.293-4.931,7.293-15.211T434.9,56.842q-7.293-4.862-21.462-4.862H377.185V92.126H413.44q14.169,0,21.462-4.931Z" transform="translate(144.012 0.395)" fill="#231f20"/>
      <path id="Path_25" data-name="Path 25" d="M443.272,95.453A39.229,39.229,0,0,1,428.2,85.937l3.195-5.279a37.506,37.506,0,0,0,13.822,8.821,49.661,49.661,0,0,0,18.267,3.4q13.891,0,20.976-5.279a16.378,16.378,0,0,0,7.084-13.752,14.391,14.391,0,0,0-3.75-10.418,24.823,24.823,0,0,0-9.307-5.973,129.31,129.31,0,0,0-15-4.306,146.631,146.631,0,0,1-17.156-5.14,27.324,27.324,0,0,1-10.974-7.71q-4.515-5.209-4.515-13.891a23.726,23.726,0,0,1,3.751-12.988,25.532,25.532,0,0,1,11.46-9.446A46.772,46.772,0,0,1,465.289.507a54.482,54.482,0,0,1,15.836,2.362A46.758,46.758,0,0,1,494.6,9.258l-2.639,5.7a45.243,45.243,0,0,0-12.849-6.112A48.452,48.452,0,0,0,465.22,6.758q-13.474,0-20.42,5.418a16.975,16.975,0,0,0-6.946,14.03A14.391,14.391,0,0,0,441.6,36.624a24.712,24.712,0,0,0,9.307,5.973,139.573,139.573,0,0,0,15.211,4.445,143.3,143.3,0,0,1,17.086,5.14,28.255,28.255,0,0,1,10.9,7.571q4.5,5.07,4.515,13.683a23.129,23.129,0,0,1-3.82,12.919,26.074,26.074,0,0,1-11.738,9.307,48.313,48.313,0,0,1-19.448,3.473,56.482,56.482,0,0,1-20.351-3.681Z" transform="translate(166.62 0.194)" fill="#231f20"/>
    </g>
  </g>
</svg>
