<svg xmlns="http://www.w3.org/2000/svg" width="239.42" height="36" viewBox="0 0 239.42 36">
  <g id="Layer_2" data-name="Layer 2" transform="translate(0 0.005)">
    <g id="Layer_1" data-name="Layer 1" transform="translate(0 -0.005)">
      <path id="Path_2" data-name="Path 2" d="M12.2,21.34l-5.62,5.7v8.946H0V1H6.582V18.941L24.1,1h7.393L16.608,16.642l15.8,19.34h-7.7Z" transform="translate(0 -0.491)" fill="#fff"/>
      <path id="Path_3" data-name="Path 3" d="M69.715,33.669a17.3,17.3,0,0,1-6.836-6.449A17.53,17.53,0,0,1,60.4,18,17.531,17.531,0,0,1,62.88,8.772a17.3,17.3,0,0,1,6.836-6.449,21.7,21.7,0,0,1,19.545,0A17.32,17.32,0,0,1,98.577,18,17.32,17.32,0,0,1,89.26,33.669a21.7,21.7,0,0,1-19.545,0Zm16.152-4.949a11.488,11.488,0,0,0,4.456-4.4A12.5,12.5,0,0,0,91.944,18a12.5,12.5,0,0,0-1.62-6.324,11.488,11.488,0,0,0-4.456-4.4,13.713,13.713,0,0,0-12.76,0,11.417,11.417,0,0,0-4.456,4.4A12.448,12.448,0,0,0,67.032,18a12.448,12.448,0,0,0,1.62,6.324,11.417,11.417,0,0,0,4.456,4.4A13.713,13.713,0,0,0,85.868,28.719Z" transform="translate(-29.815 0.005)" fill="#fff"/>
      <path id="Path_4" data-name="Path 4" d="M144.6,1h6.582V30.485h18.532v5.5H144.6Z" transform="translate(-72.416 -0.491)" fill="#fff"/>
      <path id="Path_5" data-name="Path 5" d="M199.5,1h6.582V30.485h18.532v5.5H199.5Z" transform="translate(-99.91 -0.491)" fill="#fff"/>
      <path id="Path_6" data-name="Path 6" d="M248.925,34.911a10.642,10.642,0,0,1-4.025-3.674l1.57-1.7a10.308,10.308,0,0,0,3.468,3.274,8.773,8.773,0,0,0,4.38,1.125,6.612,6.612,0,0,0,5.291-2.024q1.747-2.024,1.747-6.223V3.3H248.293V1h15.646V25.69q0,5.248-2.43,7.9t-7.19,2.649A11.348,11.348,0,0,1,248.925,34.911Z" transform="translate(-122.599 -0.491)" fill="#fff"/>
      <path id="Path_7" data-name="Path 7" d="M298.611,33.665a17.4,17.4,0,0,1-9.013-15.42,17.308,17.308,0,0,1,8.988-15.42A20.338,20.338,0,0,1,317.422,2.8,17.115,17.115,0,0,1,324,9.147a17.51,17.51,0,0,1,2.456,9.1,17.508,17.508,0,0,1-2.405,9.1,17.114,17.114,0,0,1-6.582,6.348,19.3,19.3,0,0,1-9.443,2.3,19.123,19.123,0,0,1-9.418-2.324Zm17.469-2a14.878,14.878,0,0,0,5.671-5.5,15.231,15.231,0,0,0,2.076-7.923,15.232,15.232,0,0,0-2.076-7.873,14.878,14.878,0,0,0-5.671-5.5,17.259,17.259,0,0,0-16.127,0,14.769,14.769,0,0,0-5.7,5.5,15.188,15.188,0,0,0-2.076,7.873,15.188,15.188,0,0,0,2.076,7.873,14.769,14.769,0,0,0,5.7,5.5,17.259,17.259,0,0,0,16.127,0Z" transform="translate(-145.149 -0.244)" fill="#fff"/>
      <path id="Path_8" data-name="Path 8" d="M396.961,20.89a8.6,8.6,0,0,1,2.025,5.847,7.972,7.972,0,0,1-3.291,6.847q-3.291,2.4-9.8,2.4H370.1V1h14.785q5.772,0,8.988,2.324a7.681,7.681,0,0,1,3.215,6.622,7.965,7.965,0,0,1-1.595,5.048,8.823,8.823,0,0,1-4.329,2.949A9.865,9.865,0,0,1,396.961,20.89ZM372.682,3.2V17.142h12.1q4.653,0,7.165-1.774a5.973,5.973,0,0,0,2.506-5.222,5.939,5.939,0,0,0-2.506-5.172Q389.442,3.2,384.784,3.2ZM393.721,32.01a6.119,6.119,0,0,0,2.658-5.472,6.057,6.057,0,0,0-2.658-5.447q-2.658-1.749-7.823-1.749H372.682V33.784H385.9q5.165,0,7.823-1.774Z" transform="translate(-185.77 -0.491)" fill="#fff"/>
      <path id="Path_9" data-name="Path 9" d="M433.694,34.656a14.325,14.325,0,0,1-5.494-3.424l1.165-1.9a13.694,13.694,0,0,0,5.038,3.174,18.31,18.31,0,0,0,6.658,1.225q5.063,0,7.646-1.9a5.871,5.871,0,0,0,2.582-4.949,5.139,5.139,0,0,0-1.367-3.749,9.062,9.062,0,0,0-3.393-2.149,47.607,47.607,0,0,0-5.468-1.55,53.972,53.972,0,0,1-6.253-1.849,9.961,9.961,0,0,1-4-2.774,7.3,7.3,0,0,1-1.646-5,8.457,8.457,0,0,1,1.367-4.674,9.281,9.281,0,0,1,4.177-3.4,17.245,17.245,0,0,1,7.013-1.25,20.1,20.1,0,0,1,5.772.85,17.142,17.142,0,0,1,4.912,2.3l-.962,2.049a16.587,16.587,0,0,0-4.684-2.2,17.873,17.873,0,0,0-5.063-.75q-4.911,0-7.443,1.949a6.082,6.082,0,0,0-2.532,5.048,5.139,5.139,0,0,0,1.367,3.749,9.022,9.022,0,0,0,3.392,2.149,51.371,51.371,0,0,0,5.544,1.6,52.747,52.747,0,0,1,6.228,1.849,10.3,10.3,0,0,1,3.975,2.724,7.108,7.108,0,0,1,1.646,4.924,8.245,8.245,0,0,1-1.392,4.649,9.485,9.485,0,0,1-4.279,3.349,17.813,17.813,0,0,1-7.089,1.25A20.826,20.826,0,0,1,433.694,34.656Z" transform="translate(-214.452 -0.236)" fill="#fff"/>
    </g>
  </g>
</svg>
