<svg xmlns="http://www.w3.org/2000/svg" width="395.234" height="72.66" viewBox="0 0 395.234 72.66">
  <g id="kollcorp_logo" transform="translate(-1.77 -3.11)">
    <path id="Path_1" data-name="Path 1" d="M37.31,3.11,1.77,38.64,37.31,74.17V59.61L17.93,40.23,37.31,20.86Z" fill="#138699"/>
    <path id="Path_2" data-name="Path 2" d="M23.98,40.23,59.51,75.77V4.7Z" fill="#138699"/>
    <path id="Path_3" data-name="Path 3" d="M76.06,15.56h7.58v26.6h.15l20.6-26.6h9l-16,20.37L115.1,67.21h-9L92.43,42l-8.79,9.53V67.21H76.06Z" fill="#231f20"/>
    <path id="Path_4" data-name="Path 4" d="M114.7,41.38a88,88,0,0,1,.52-12.07,14.36,14.36,0,0,1,1.68-4.93A17.51,17.51,0,0,1,122.73,18a16.87,16.87,0,0,1,9.84-2.89,17.2,17.2,0,0,1,15.64,9.28A12.06,12.06,0,0,1,150,29.34a101.655,101.655,0,0,1,.45,12,102,102,0,0,1-.45,12,12.19,12.19,0,0,1-1.75,5,16.62,16.62,0,0,1-5.69,6.3,17.52,17.52,0,0,1-10,3,18,18,0,0,1-15.67-9.28c-.37-.78-.7-1.53-1-2.24a15,15,0,0,1-.68-2.76,87.759,87.759,0,0,1-.51-11.98Zm7.58,0a61.878,61.878,0,0,0,.55,10.33,8.7,8.7,0,0,0,2,4.37A8.8,8.8,0,0,0,128,58.67a8.6,8.6,0,0,0,4.6,1.18,9,9,0,0,0,4.71-1.18,8.44,8.44,0,0,0,3-2.59,9.3,9.3,0,0,0,2-4.37,67.082,67.082,0,0,0,.51-10.33,68.729,68.729,0,0,0-.51-10.4,9.32,9.32,0,0,0-2-4.3,9.24,9.24,0,0,0-3-2.66,10.86,10.86,0,0,0-4.71-1.1A10.339,10.339,0,0,0,128,24a9.64,9.64,0,0,0-3.161,2.66,8.69,8.69,0,0,0-2,4.3,63.4,63.4,0,0,0-.56,10.42Z" fill="#231f20"/>
    <path id="Path_5" data-name="Path 5" d="M157,15.56h7.57V59.85H189v7.36H157Z" fill="#231f20"/>
    <path id="Path_6" data-name="Path 6" d="M193.75,15.56h7.57V59.85h24.39v7.36h-32Z" fill="#231f20"/>
    <path id="Path_7" data-name="Path 7" d="M278,52.78a19.47,19.47,0,0,1-6.28,11,17.56,17.56,0,0,1-11.29,3.82,18,18,0,0,1-15.68-9.28c-.37-.78-.7-1.53-1-2.24a14.18,14.18,0,0,1-.69-2.76,89.485,89.485,0,0,1-.52-12,89.219,89.219,0,0,1,.52-12,14.57,14.57,0,0,1,1.68-4.93A17.57,17.57,0,0,1,250.58,18a18,18,0,0,1,21.65,1.51A19.68,19.68,0,0,1,278,30.41h-8a11.38,11.38,0,0,0-3.37-5.32,9.72,9.72,0,0,0-6.19-2.17,10.34,10.34,0,0,0-4.6,1.1,9.64,9.64,0,0,0-3.16,2.66,8.69,8.69,0,0,0-2,4.3,63.4,63.4,0,0,0-.55,10.4,61.879,61.879,0,0,0,.55,10.33,8.7,8.7,0,0,0,2,4.37,8.89,8.89,0,0,0,3.16,2.59,8.64,8.64,0,0,0,4.61,1.18q6.39,0,9.56-7.07Z" fill="#231f20"/>
    <path id="Path_8" data-name="Path 8" d="M279.27,41.38a90.236,90.236,0,0,1,.51-12.07,14.56,14.56,0,0,1,1.69-4.93A17.51,17.51,0,0,1,287.3,18a16.87,16.87,0,0,1,9.84-2.89,17.2,17.2,0,0,1,15.64,9.28,12.061,12.061,0,0,1,1.75,4.93,101.661,101.661,0,0,1,.45,12,102,102,0,0,1-.45,12,12.191,12.191,0,0,1-1.75,5,16.62,16.62,0,0,1-5.69,6.3,17.52,17.52,0,0,1-9.95,3,18,18,0,0,1-15.67-9.28c-.37-.78-.7-1.53-1-2.24a15.792,15.792,0,0,1-.69-2.76,90,90,0,0,1-.51-11.96Zm7.57,0a61.527,61.527,0,0,0,.56,10.33,8.77,8.77,0,0,0,2,4.37,8.93,8.93,0,0,0,3.17,2.59,8.6,8.6,0,0,0,4.6,1.18,9.05,9.05,0,0,0,4.71-1.18,8.44,8.44,0,0,0,3-2.59,9.3,9.3,0,0,0,2-4.37,67.086,67.086,0,0,0,.51-10.33,68.735,68.735,0,0,0-.51-10.4,9.32,9.32,0,0,0-2-4.3,9.24,9.24,0,0,0-3-2.66,10.9,10.9,0,0,0-4.71-1.1,10.34,10.34,0,0,0-4.6,1.1,9.789,9.789,0,0,0-3.17,2.66,8.77,8.77,0,0,0-2,4.3,63.056,63.056,0,0,0-.56,10.4Z" fill="#231f20"/>
    <path id="Path_9" data-name="Path 9" d="M321.59,15.56h19.55A15.1,15.1,0,0,1,351.35,19q4.75,3.86,5,11-.13,10.52-9.66,14.31l11.58,22.92h-9l-10.4-22.09h-9.7V67.21h-7.58Zm7.58,22.64h11.49c2.84-.05,5-.9,6.4-2.56a8.13,8.13,0,0,0,2.1-5.68c-.05-2.7-.88-4.66-2.51-5.86a8.53,8.53,0,0,0-5.58-1.6h-11.9Z" fill="#231f20"/>
    <path id="Path_10" data-name="Path 10" d="M362.22,15.56h18.13a28,28,0,0,1,5.7.56,15.16,15.16,0,0,1,5.57,3.05,12.4,12.4,0,0,1,3.84,5A16.41,16.41,0,0,1,397,31.5,15.92,15.92,0,0,1,393.08,42q-4,4.95-11.75,5.1H369.79V67.21h-7.57Zm7.57,24.13H381A7.89,7.89,0,0,0,387.4,37a9,9,0,0,0,2-5.69,10.34,10.34,0,0,0-.83-4.38,6.45,6.45,0,0,0-2.41-2.53,9.27,9.27,0,0,0-5.43-1.46h-11Z" fill="#231f20"/>
  </g>
</svg>
