<svg xmlns="http://www.w3.org/2000/svg" width="498.792" height="75" viewBox="0 0 498.792 75">
  <g id="Layer_2" data-name="Layer 2" transform="translate(0 0.005)">
    <g id="Layer_1" data-name="Layer 1" transform="translate(0 -0.005)">
      <path id="Path_2" data-name="Path 2" d="M25.121,43.39,13.551,55.263V73.906H0V1H13.551V38.39L49.617,1H64.836L34.19,33.6,66.713,73.906H50.868Z" transform="translate(0 0.047)" fill="#231f20"/>
      <path id="Path_3" data-name="Path 3" d="M79.58,70.148A35.793,35.793,0,0,1,65.508,56.712,36.857,36.857,0,0,1,60.4,37.5a36.858,36.858,0,0,1,5.108-19.216A35.793,35.793,0,0,1,79.58,4.843,41.608,41.608,0,0,1,99.7,0a41.639,41.639,0,0,1,20.118,4.843,36.023,36.023,0,0,1,14.072,13.384A36.785,36.785,0,0,1,139,37.5a36.785,36.785,0,0,1-5.108,19.268,36.023,36.023,0,0,1-14.072,13.384A41.639,41.639,0,0,1,99.7,74.991,41.608,41.608,0,0,1,79.58,70.148Zm33.252-10.311a23.788,23.788,0,0,0,9.173-9.166A26.282,26.282,0,0,0,125.341,37.5a26.282,26.282,0,0,0-3.336-13.175,23.788,23.788,0,0,0-9.173-9.166,27.935,27.935,0,0,0-26.268,0,23.642,23.642,0,0,0-9.173,9.166A26.178,26.178,0,0,0,74.055,37.5a26.178,26.178,0,0,0,3.336,13.175,23.642,23.642,0,0,0,9.173,9.166A27.935,27.935,0,0,0,112.832,59.836Z" transform="translate(2.56 0.005)" fill="#231f20"/>
      <path id="Path_4" data-name="Path 4" d="M144.6,1h13.551V62.449H196.3V73.906H144.6Z" transform="translate(5.992 0.047)" fill="#231f20"/>
      <path id="Path_5" data-name="Path 5" d="M199.5,1h13.551V62.449H251.2V73.906H199.5Z" transform="translate(8.267 0.047)" fill="#231f20"/>
      <path id="Path_6" data-name="Path 6" d="M253.187,71.667a22.008,22.008,0,0,1-8.287-7.655l3.231-3.541a21.331,21.331,0,0,0,7.14,6.822,17.889,17.889,0,0,0,9.017,2.343q7.3,0,10.893-4.218t3.6-12.967V5.791H251.884V1h32.21V52.451q0,10.936-5,16.456t-14.8,5.52A23.136,23.136,0,0,1,253.187,71.667Z" transform="translate(10.154 0.047)" fill="#231f20"/>
      <path id="Path_7" data-name="Path 7" d="M308.155,69.605A35.593,35.593,0,0,1,294.6,56.326a36.5,36.5,0,0,1-5-18.852,36.5,36.5,0,0,1,4.951-18.852A35.594,35.594,0,0,1,308.1,5.343a41.423,41.423,0,0,1,38.777-.052A35.428,35.428,0,0,1,360.43,18.518a36.826,36.826,0,0,1,5.056,18.956,36.826,36.826,0,0,1-4.951,18.956,35.427,35.427,0,0,1-13.551,13.227,39.344,39.344,0,0,1-19.44,4.791,38.99,38.99,0,0,1-19.388-4.843Zm35.962-4.166a30.8,30.8,0,0,0,11.675-11.457,32.037,32.037,0,0,0,4.274-16.508,32.038,32.038,0,0,0-4.274-16.4A30.8,30.8,0,0,0,344.117,9.613a35.154,35.154,0,0,0-33.2,0A30.573,30.573,0,0,0,299.19,21.07a31.944,31.944,0,0,0-4.274,16.4,31.944,31.944,0,0,0,4.274,16.4,30.573,30.573,0,0,0,11.727,11.457,35.154,35.154,0,0,0,33.2,0Z" transform="translate(11.985 0.026)" fill="#231f20"/>
      <path id="Path_8" data-name="Path 8" d="M425.4,42.452q4.107,4.687,4.17,12.186,0,9.259-6.775,14.269t-20.17,5H370.1V1h30.438q11.883,0,18.5,4.843t6.619,13.8a16.739,16.739,0,0,1-3.283,10.519,18.159,18.159,0,0,1-8.912,6.145Q421.281,37.765,425.4,42.452ZM375.416,5.583V34.641h24.913q9.579,0,14.75-3.7t5.16-10.884q0-7.082-5.16-10.78t-14.75-3.7Zm43.311,60.043q5.472-3.7,5.472-11.4t-5.472-11.352q-5.473-3.645-16.105-3.645H375.416v30.1h27.206q10.632,0,16.1-3.7Z" transform="translate(15.28 0.047)" fill="#231f20"/>
      <path id="Path_9" data-name="Path 9" d="M439.51,71.689a29.441,29.441,0,0,1-11.31-7.134l2.4-3.958a28.146,28.146,0,0,0,10.372,6.614,37.292,37.292,0,0,0,13.707,2.552q10.424,0,15.74-3.958a12.277,12.277,0,0,0,5.316-10.311,10.785,10.785,0,0,0-2.814-7.811,18.629,18.629,0,0,0-6.984-4.479,97.093,97.093,0,0,0-11.258-3.229A110.1,110.1,0,0,1,441.8,36.121a20.5,20.5,0,0,1-8.235-5.78q-3.388-3.906-3.388-10.415A17.777,17.777,0,0,1,433,10.187a19.155,19.155,0,0,1,8.6-7.082A35.123,35.123,0,0,1,456.032.5a40.912,40.912,0,0,1,11.883,1.771,35.1,35.1,0,0,1,10.111,4.791l-1.981,4.27A33.963,33.963,0,0,0,466.4,6.75a36.386,36.386,0,0,0-10.424-1.562q-10.111,0-15.323,4.062a12.724,12.724,0,0,0-5.212,10.519,10.784,10.784,0,0,0,2.815,7.811,18.545,18.545,0,0,0,6.984,4.479,104.784,104.784,0,0,0,11.414,3.333,107.6,107.6,0,0,1,12.821,3.854,21.2,21.2,0,0,1,8.183,5.676q3.377,3.8,3.388,10.259a17.331,17.331,0,0,1-2.866,9.686,19.564,19.564,0,0,1-8.808,6.978,36.28,36.28,0,0,1-14.593,2.6A42.415,42.415,0,0,1,439.51,71.689Z" transform="translate(17.743 0.025)" fill="#231f20"/>
    </g>
  </g>
</svg>
