<svg xmlns="http://www.w3.org/2000/svg" width="110.625" height="177" viewBox="0 0 110.625 177">
  <path id="mobile-android" d="M67.758,154.875H42.867a4.161,4.161,0,0,1-4.148-4.148v-2.766a4.161,4.161,0,0,1,4.148-4.148H67.758a4.161,4.161,0,0,1,4.148,4.148v2.766A4.161,4.161,0,0,1,67.758,154.875ZM110.625,16.594V160.406A16.6,16.6,0,0,1,94.031,177H16.594A16.6,16.6,0,0,1,0,160.406V16.594A16.6,16.6,0,0,1,16.594,0H94.031A16.6,16.6,0,0,1,110.625,16.594Zm-11.062,0a5.548,5.548,0,0,0-5.531-5.531H16.594a5.548,5.548,0,0,0-5.531,5.531V160.406a5.548,5.548,0,0,0,5.531,5.531H94.031a5.548,5.548,0,0,0,5.531-5.531Z"/>
</svg>
