<svg xmlns="http://www.w3.org/2000/svg" width="200" height="177.778" viewBox="0 0 200 177.778">
  <path id="desktop" d="M183.333,0H16.667A16.671,16.671,0,0,0,0,16.667v100a16.671,16.671,0,0,0,16.667,16.667H83.333L75,166.667H50a5.556,5.556,0,1,0,0,11.111H150a5.556,5.556,0,0,0,0-11.111H125l-8.333-33.333h66.667A16.671,16.671,0,0,0,200,116.667v-100A16.671,16.671,0,0,0,183.333,0ZM86.458,166.667l5.556-22.222h15.972l5.556,22.222Zm102.431-50a5.572,5.572,0,0,1-5.556,5.556H16.667a5.572,5.572,0,0,1-5.556-5.556v-100a5.572,5.572,0,0,1,5.556-5.556H183.333a5.572,5.572,0,0,1,5.556,5.556Z"/>
</svg>
