<svg xmlns="http://www.w3.org/2000/svg" width="100" height="95.712" viewBox="0 0 100 95.712">
  <path id="star" d="M115.378,32.046,88.07,28.064,75.864,3.317a5.986,5.986,0,0,0-10.729,0L52.929,28.064,25.621,32.046a5.984,5.984,0,0,0-3.308,10.206L42.07,61.5,37.4,88.7A5.978,5.978,0,0,0,46.07,95L70.5,82.158,94.929,95a5.982,5.982,0,0,0,8.673-6.3L98.929,61.5l19.757-19.252a5.984,5.984,0,0,0-3.308-10.206ZM92.518,59.41l5.2,30.28L70.5,75.41l-27.2,14.3,5.2-30.28L26.481,37.952l30.411-4.411L70.5,5.971l13.607,27.57,30.411,4.411Z" transform="translate(-20.5 0.013)" fill="#fff"/>
</svg>
