<svg xmlns="http://www.w3.org/2000/svg" width="100" height="80" viewBox="0 0 100 80">
  <path id="chalkboard-teacher" d="M95,0H30a5,5,0,0,0-5,5V20a15.212,15.212,0,1,0,5,.919V5H95V60H85V50a5,5,0,0,0-5-5H60a5,5,0,0,0-5,5V60H47.709c-.092-.147-.161-.306-.258-.45a14.339,14.339,0,0,0-12.016-6.111C31.094,53.441,30,55,25,55s-6.086-1.559-10.436-1.559A14.335,14.335,0,0,0,2.548,59.552,14.922,14.922,0,0,0,0,67.917V73.75A6.25,6.25,0,0,0,6.25,80h37.5A6.25,6.25,0,0,0,50,73.75V67.917A14.973,14.973,0,0,0,49.681,65H95a5,5,0,0,0,5-5V5A5,5,0,0,0,95,0ZM35,35A10,10,0,1,1,25,25,10.011,10.011,0,0,1,35,35ZM45,73.75A1.252,1.252,0,0,1,43.75,75H6.25A1.252,1.252,0,0,1,5,73.75V67.917a9.94,9.94,0,0,1,1.7-5.573,9.355,9.355,0,0,1,7.869-3.9C17.97,58.441,19.25,60,25,60s7.033-1.559,10.436-1.559a9.357,9.357,0,0,1,7.869,3.9A9.94,9.94,0,0,1,45,67.917ZM80,60H60V50H80Z" fill="#fff"/>
</svg>
